[2025-06-23T06:54:58.742Z] Starting setup
[2025-06-23T06:54:59.242Z] Setting up paths
[2025-06-23T06:54:59.242Z] Project Path: C:\Users\EVPez\Documents\mayaREAL!!!\scenes\multi-major-year12\inder\projec\mosh
[2025-06-23T06:54:59.292Z] Got comp data
[2025-06-23T06:54:59.338Z] Got marker times
[2025-06-23T06:54:59.352Z] Setup completed
[2025-06-23T06:54:59.353Z] Rendering temp
[2025-06-23T06:54:59.353Z] Rendering to C:\Users\EVPez\Documents\mayaREAL!!!\scenes\multi-major-year12\inder\projec\mosh\Helpers\rendFile.mov
[2025-06-23T06:55:23.370Z] Rendered to C:\Users\EVPez\Documents\mayaREAL!!!\scenes\multi-major-year12\inder\projec\mosh\Helpers\rendFile.mov
[2025-06-23T06:55:23.983Z] Priming main file
[2025-06-23T06:55:23.983Z] Starting Priming main file with ffgac
[2025-06-23T06:55:42.461Z] ffgac stderr: [mov,mp4,m4a,3gp,3g2,mj2 @ 00000200e1028940] Referenced QT chapter track not found

[2025-06-23T06:55:42.506Z] ffgac stderr: Input #0, mov,mp4,m4a,3gp,3g2,mj2, from 'C:\Users\EVPez\Documents\mayaREAL!!!\scenes\multi-major-year12\inder\projec\mosh\Helpers\rendFile.mov':
  Metadata:
    major_brand     : qt  
    minor_version   : 537199360
    compatible_brands: qt  
    creation_time   : 2025-06-16T09:29:50.000000Z
  Duration: 
[2025-06-23T06:55:42.506Z] ffgac stderr: 00:00:17.16, start: 0.000000, bitrate: 114797 kb/s
  Stream #0:0[0x1](eng): Video: prores (Standard) (apcn / 0x6E637061), yuv422p10le(bt709, progressive), 1920x1080, 112772 kb/s, SAR 1:1 DAR 16:9, 25 fps, 25 tbr, 25 tbn (default)
      Metadata:
        creation_time   : 2025-06-16T09:29:50.000000Z
        handler_name    : Apple Video Media Handler
        vendor_id       : appl
        encoder         : Apple ProRes 422
        timecode        : 00:00:00:00
  Stream #0:1[0x2](eng): Audio: pcm_s16le (sowt / 0x74776F73), 48000 Hz, stereo, s16, 1536 kb/s (default)
      Metadata:
        creation_time   : 2025-06-16T09:29:50.000000Z
        handler_name    : Apple Sound Media Handler
        vendor_id       :     
        timecode        : 00:00:00:00
  Stream #0:2[0x3](eng): Data: none (tmcd / 0x64636D74), 0 kb/s (default)
      Metadata:
        creation_time   : 2025-06-16T09:29:50.000000Z
        handler_name    : Time Code Media Handler
        timecode        : 00:00:00:00

[2025-06-23T06:55:42.514Z] ffgac stderr: Stream mapping:
  Stream #0:0 -> #0:0 (prores (native) -> mpeg4 (native))

[2025-06-23T06:55:42.514Z] ffgac stderr: Press [q] to stop, [?] for help

[2025-06-23T06:55:42.568Z] ffgac stderr: Output #0, rawvideo, to 'C:\Users\EVPez\Documents\mayaREAL!!!\scenes\multi-major-year12\inder\projec\mosh\Helpers\primedFile.mp4':
  Metadata:
    major_brand     : qt  
    minor_version   : 537199360
    compatible_brands: qt  
    encoder         : Lavf61.1.100

[2025-06-23T06:55:42.568Z] ffgac stderr:   Stream #0:0(eng): Video: mpeg4, yuv420p(tv, bt709, progressive), 1920x1080 [SAR 1:1 DAR 16:9], q=2-31, 200 kb/s, 25 fps, 25 tbn (default)
      Metadata:
        creation_time   : 2025-06-16T09:29:50.000000Z
        handler_name    : Apple Video Media Handler
        vendor_id       : appl
        timecode        : 00:00:00:00
        encoder         : Lavc61.3.100 mpeg4
      Side data:
        cpb: bitrate max/min/avg: 0/0/200000 buffer size: 0 vbv_delay: N/A

[2025-06-23T06:55:43.029Z] ffgac stderr: frame=   87 fps=0.0 q=2.0 size=    5632KiB time=00:00:03.48 bitrate=13257.9kbits/s speed=6.76x    
[2025-06-23T06:55:43.550Z] ffgac stderr: frame=  188 fps=182 q=2.0 size=   15872KiB time=00:00:07.52 bitrate=17290.3kbits/s speed=7.26x    
[2025-06-23T06:55:44.054Z] ffgac stderr: frame=  292 fps=190 q=2.0 size=   24832KiB time=00:00:11.68 bitrate=17416.4kbits/s speed=7.59x    
[2025-06-23T06:55:44.054Z] ffgac stderr: 
[2025-06-23T06:55:44.577Z] ffgac stderr: frame=  402 fps=195 q=2.0 size=   33024KiB time=00:00:16.08 bitrate=16824.2kbits/s speed= 7.8x    
[2025-06-23T06:55:44.670Z] ffgac stderr: [out#0/rawvideo @ 00000200e2928ec0] video:35795KiB audio:0KiB subtitle:0KiB other streams:0KiB global headers:0KiB muxing overhead: 0.000000%
frame=  429 fps=199 q=2.0 Lsize=   35795KiB time=00:00:17.16 bitrate=17088.3kbits/s speed=7.96x    

[2025-06-23T06:55:44.722Z] Priming main file completed successfully
[2025-06-23T06:55:44.722Z] Primed main file to C:\Users\EVPez\Documents\mayaREAL!!!\scenes\multi-major-year12\inder\projec\mosh\Helpers\primedFile.mp4
[2025-06-23T06:55:44.722Z] Starting RF splitting 0 with ffmpeg
[2025-06-23T06:55:49.035Z] ffmpeg stderr: Input #0, m4v, from 'C:\Users\EVPez\Documents\mayaREAL!!!\scenes\multi-major-year12\inder\projec\mosh\Helpers\primedFile.mp4':
  Duration: N/A, start: 0.000000, bitrate: N/A

[2025-06-23T06:55:49.035Z] ffmpeg stderr:   Stream #0:0: Video: mpeg4 (Simple Profile), yuv420p, 1920x1080 [SAR 1:1 DAR 16:9], 25 fps, 25 tbr, 1200k tbn

[2025-06-23T06:55:49.035Z] ffmpeg stderr: Stream mapping:
  Stream #0:0 -> #0:0 (copy)

[2025-06-23T06:55:49.035Z] ffmpeg stderr: Output #0, mp4, to 'C:\Users\EVPez\Documents\mayaREAL!!!\scenes\multi-major-year12\inder\projec\mosh\Helpers\rfSplitFile0.mp4':
  Metadata:
    encoder         : Lavf61.1.100
  Stream #0:0: Video: mpeg4 (Simple Profile) (mp4v / 0x7634706D), yuv420p, 1920x1080 [SAR 1:1 DAR 16:9], q=2-31, 25 fps, 25 tbr, 
[2025-06-23T06:55:49.036Z] ffmpeg stderr: 1200k tbn
Press [q] to stop, [?] for help

[2025-06-23T06:55:49.041Z] ffmpeg stderr: [out#0/mp4 @ 0000028a6efafd40] video:3239KiB audio:0KiB subtitle:0KiB other streams:0KiB global headers:0KiB muxing overhead: 0.035663%
size=    3241KiB time=00:00:02.44 bitrate=10879.9kbits/s speed= 445x    

[2025-06-23T06:55:49.044Z] RF splitting 0 completed successfully
[2025-06-23T06:55:49.044Z] Finished RF splitting 0: startTime=0, duration=2.4
[2025-06-23T06:55:49.044Z] Starting RF splitting 1 with ffmpeg
[2025-06-23T06:55:49.285Z] ffmpeg stderr: Input #0, m4v, from 'C:\Users\EVPez\Documents\mayaREAL!!!\scenes\multi-major-year12\inder\projec\mosh\Helpers\primedFile.mp4':
  Duration: N/A, start: 0.000000, bitrate: N/A
  Stream #0:0
[2025-06-23T06:55:49.285Z] ffmpeg stderr: : Video: mpeg4 (Simple Profile), yuv420p, 1920x1080 [SAR 1:1 DAR 16:9], 25 fps, 25 tbr, 1200k tbn

[2025-06-23T06:55:49.290Z] ffmpeg stderr: Stream mapping:
  Stream #0:0 -> #0:0 (copy)

[2025-06-23T06:55:49.290Z] ffmpeg stderr: Output #0, mp4, to 'C:\Users\EVPez\Documents\mayaREAL!!!\scenes\multi-major-year12\inder\projec\mosh\Helpers\rfSplitFile1.mp4':
  Metadata:
    encoder         : Lavf61.1.100
  Stream #0:0: Video: mpeg4 (Simple Profile) (mp4v / 0x7634706D), yuv420p, 1920x1080 [SAR 1:1 DAR 16:9], q=2-31, 25 fps, 25 tbr, 1200k tbn
Press [q] to stop, [?] for help

[2025-06-23T06:55:49.341Z] ffmpeg stderr: [out#0/mp4 @ 000002d1cbdefd40] video:32499KiB audio:0KiB subtitle:0KiB other streams:0KiB global headers:0KiB muxing overhead: 0.008447%
size=   32502KiB time=00:00:17.16 bitrate=15516.1kbits/s speed= 339x    

[2025-06-23T06:55:49.344Z] RF splitting 1 completed successfully
[2025-06-23T06:55:49.344Z] Finished RF splitting 1: startTime=2.48, duration=14.68
[2025-06-23T06:55:49.347Z] Starting RF concatenating with ffmpeg
[2025-06-23T06:55:49.580Z] ffmpeg stderr: Input #0, concat, from 'C:\Users\EVPez\Documents\mayaREAL!!!\scenes\multi-major-year12\inder\projec\mosh\Helpers\rfSplitList.txt':
  Duration: N/A, start: 0.000000, bitrate: 11057 kb/s

[2025-06-23T06:55:49.580Z] ffmpeg stderr:   Stream #0:0(und): Video: mpeg4 (Simple Profile) (mp4v / 0x7634706D), yuv420p, 1920x1080 [SAR 1:1 DAR 16:9], 11057 kb/s, 25 fps, 25 tbr, 1200k tbn
      Metadata:
        handler_name    : VideoHandler
        vendor_id       : [0][0][0][0]

[2025-06-23T06:55:49.581Z] ffmpeg stderr: Stream mapping:
  Stream #0:0 -> #0:0 (copy)

[2025-06-23T06:55:49.581Z] ffmpeg stderr: Output #0, mp4, to 'C:\Users\EVPez\Documents\mayaREAL!!!\scenes\multi-major-year12\inder\projec\mosh\Helpers\rfConcatFile.mp4':
  Metadata:
    encoder         : Lavf61.1.100
  Stream #0:0(und): Video: mpeg4 (Simple Profile) (mp4v / 0x7634706D), yuv420p, 1920x1080 [SAR 1:1 DAR 16:9], q=2-31, 11057 kb/s, 25 fps, 25 tbr, 1200k tbn
      Metadata:
        handler_name    : VideoHandler
        vendor_id       : [0][0][0][0]

[2025-06-23T06:55:49.581Z] ffmpeg stderr: Press [q] to stop, [?] for help

[2025-06-23T06:55:49.606Z] ffmpeg stderr: [out#0/mp4 @ 00000238e5a5de40] video:35739KiB audio:0KiB subtitle:0KiB other streams:0KiB global headers:0KiB muxing overhead: 0.012512%
size=   35743KiB time=00:00:17.08 bitrate=17143.3kbits/s speed= 673x    

[2025-06-23T06:55:49.610Z] RF concatenating completed successfully
[2025-06-23T06:55:49.610Z] Finished RF concatenating
[2025-06-23T06:55:49.611Z] No hold frames detected, skipping HF processing
[2025-06-23T06:55:49.611Z] Generating Glitch Doc
[2025-06-23T06:55:49.611Z] Copying Glitch Doc from C:\Program Files (x86)\Common Files\Adobe\CEP\extensions\com.aescripts.datamosh2\bin\ffmpeg\glitchDocTemp.js to C:\Users\EVPez\Documents\mayaREAL!!!\scenes\multi-major-year12\inder\projec\mosh\Helpers\glitchDoc.js
[2025-06-23T06:55:49.611Z] No swap modules detected, skipping MV data collection
[2025-06-23T06:55:49.611Z] Creating mosh instructions
[2025-06-23T06:55:49.611Z] Writing Glitch Doc
[2025-06-23T06:55:49.655Z] Finished writing Glitch Doc
[2025-06-23T06:55:49.655Z] Glitch Doc generated successfully
[2025-06-23T06:55:49.655Z] Moshing Temp
[2025-06-23T06:55:49.655Z] Starting Moshing temp with ffedit
[2025-06-23T06:55:52.727Z] ffedit stderr: Input #0, mov,mp4,m4a,3gp,3g2,mj2, from 'C:\Users\EVPez\Documents\mayaREAL!!!\scenes\multi-major-year12\inder\projec\mosh\Helpers\rfConcatFile.mp4':
  Metadata:
    major_brand     : isom
    minor_version   : 512
    compatible_brands: isomiso2mp41
    encoder         : Lavf61.1.100
  Duration: 00:00:17.08, start: 0.000000, bitrate: 17143 kb/s
  Stream #0:0[0x1](und): Video: mpeg4 (Simple Profile) (mp4v / 0x7634706D), yuv420p, 1920x1080 [SAR 1:1 DAR 16:9], 17141 kb/s, 25 fps, 25 tbr, 1200k tbn (default)
      Metadata:
        handler_name    : VideoHandler
        vendor_id       : [0][0][0][0]
frame=   71 fps=0.0 size=N/A time=00:00:02.80  speed=5.41x    
[2025-06-23T06:55:53.354Z] ffedit stderr: frame=   73 fps= 64 size=N/A time=00:00:02.88  speed=2.52x    
[2025-06-23T06:55:53.969Z] ffedit stderr: frame=   75 fps= 43 size=N/A time=00:00:02.96  speed=1.68x    
[2025-06-23T06:55:54.590Z] ffedit stderr: frame=   77 fps= 32 size=N/A time=00:00:03.04  speed=1.28x    
[2025-06-23T06:55:55.225Z] ffedit stderr: frame=   79 fps= 26 size=N/A time=00:00:03.12  speed=1.03x    
[2025-06-23T06:55:55.864Z] ffedit stderr: frame=   81 fps= 22 size=N/A time=00:00:03.20  speed=0.876x    
[2025-06-23T06:55:56.511Z] ffedit stderr: frame=   83 fps= 19 size=N/A time=00:00:03.28  speed=0.763x    
[2025-06-23T06:55:57.202Z] ffedit stderr: frame=   85 fps= 17 size=N/A time=00:00:03.36  speed=0.673x    
[2025-06-23T06:55:57.877Z] ffedit stderr: frame=   87 fps= 15 size=N/A time=00:00:03.44  speed=0.607x    
[2025-06-23T06:55:58.548Z] ffedit stderr: frame=   89 fps= 14 size=N/A time=00:00:03.52  speed=0.555x    
[2025-06-23T06:55:59.232Z] ffedit stderr: frame=   91 fps= 13 size=N/A time=00:00:03.60  speed=0.513x    
[2025-06-23T06:55:59.921Z] ffedit stderr: frame=   93 fps= 12 size=N/A time=00:00:03.68  speed=0.477x    
[2025-06-23T06:56:00.599Z] ffedit stderr: frame=   95 fps= 11 size=N/A time=00:00:03.76  speed=0.448x    
[2025-06-23T06:56:01.150Z] ffedit stderr: frame=   98 fps= 11 size=N/A time=00:00:03.88  speed=0.434x    
[2025-06-23T06:56:01.680Z] ffedit stderr: frame=  103 fps= 11 size=N/A time=00:00:04.08  speed=0.431x    
[2025-06-23T06:56:02.277Z] ffedit stderr: frame=  106 fps= 11 size=N/A time=00:00:04.20  speed=0.417x    
[2025-06-23T06:56:03.028Z] ffedit stderr: frame=  109 fps= 10 size=N/A time=00:00:04.32  speed=0.399x    
[2025-06-23T06:56:03.528Z] ffedit stderr: frame=  111 fps=9.8 size=N/A time=00:00:04.40  speed=0.389x    
[2025-06-23T06:56:04.032Z] ffedit stderr: frame=  113 fps=9.6 size=N/A time=00:00:04.48  speed=0.379x    
[2025-06-23T06:56:04.783Z] ffedit stderr: frame=  116 fps=9.2 size=N/A time=00:00:04.60  speed=0.366x    
[2025-06-23T06:56:05.284Z] ffedit stderr: frame=  118 fps=9.0 size=N/A time=00:00:04.68  speed=0.358x    
[2025-06-23T06:56:05.789Z] ffedit stderr: frame=  120 fps=8.8 size=N/A time=00:00:04.76  speed=0.351x    
[2025-06-23T06:56:06.527Z] ffedit stderr: frame=  123 fps=8.6 size=N/A time=00:00:04.88  speed=0.341x    
[2025-06-23T06:56:07.271Z] ffedit stderr: frame=  126 fps=8.4 size=N/A time=00:00:05.00  speed=0.332x    
[2025-06-23T06:56:08.000Z] ffedit stderr: frame=  129 fps=8.2 size=N/A time=00:00:05.12  speed=0.324x    
[2025-06-23T06:56:08.726Z] ffedit stderr: frame=  132 fps=8.0 size=N/A time=00:00:05.24  speed=0.317x    
[2025-06-23T06:56:09.465Z] ffedit stderr: frame=  135 fps=7.8 size=N/A time=00:00:05.36  speed=0.311x    
[2025-06-23T06:56:10.206Z] ffedit stderr: frame=  138 fps=7.7 size=N/A time=00:00:05.48  speed=0.304x    
[2025-06-23T06:56:10.927Z] ffedit stderr: frame=  141 fps=7.5 size=N/A time=00:00:05.60  speed=0.299x    
[2025-06-23T06:56:11.643Z] ffedit stderr: frame=  144 fps=7.4 size=N/A time=00:00:05.72  speed=0.294x    
[2025-06-23T06:56:12.352Z] ffedit stderr: frame=  147 fps=7.3 size=N/A time=00:00:05.84  speed=0.29x    
[2025-06-23T06:56:13.067Z] ffedit stderr: frame=  150 fps=7.2 size=N/A time=00:00:05.96  speed=0.286x    
[2025-06-23T06:56:13.784Z] ffedit stderr: frame=  153 fps=7.1 size=N/A time=00:00:06.08  speed=0.282x    
[2025-06-23T06:56:14.505Z] ffedit stderr: frame=  156 fps=7.0 size=N/A time=00:00:06.20  speed=0.278x    
[2025-06-23T06:56:15.233Z] ffedit stderr: frame=  159 fps=6.9 size=N/A time=00:00:06.32  speed=0.275x    
[2025-06-23T06:56:15.951Z] ffedit stderr: frame=  162 fps=6.8 size=N/A time=00:00:06.44  speed=0.271x    
[2025-06-23T06:56:16.664Z] ffedit stderr: frame=  165 fps=6.7 size=N/A time=00:00:06.56  speed=0.268x    
[2025-06-23T06:56:17.389Z] ffedit stderr: frame=  168 fps=6.7 size=N/A time=00:00:06.68  speed=0.265x    
[2025-06-23T06:56:18.102Z] ffedit stderr: frame=  171 fps=6.6 size=N/A time=00:00:06.80  speed=0.263x    
[2025-06-23T06:56:18.805Z] ffedit stderr: frame=  174 fps=6.5 size=N/A time=00:00:06.92  speed=0.26x    
[2025-06-23T06:56:19.518Z] ffedit stderr: frame=  177 fps=6.5 size=N/A time=00:00:07.04  speed=0.258x    
[2025-06-23T06:56:20.234Z] ffedit stderr: frame=  180 fps=6.4 size=N/A time=00:00:07.16  speed=0.255x    
[2025-06-23T06:56:20.941Z] ffedit stderr: frame=  183 fps=6.4 size=N/A time=00:00:07.28  speed=0.253x    
[2025-06-23T06:56:21.634Z] ffedit stderr: frame=  186 fps=6.3 size=N/A time=00:00:07.40  speed=0.251x    
[2025-06-23T06:56:22.353Z] ffedit stderr: frame=  189 fps=6.3 size=N/A time=00:00:07.52  speed=0.249x    
[2025-06-23T06:56:23.081Z] ffedit stderr: frame=  192 fps=6.2 size=N/A time=00:00:07.64  speed=0.247x    
[2025-06-23T06:56:23.584Z] ffedit stderr: frame=  194 fps=6.2 size=N/A time=00:00:07.72  speed=0.246x    
[2025-06-23T06:56:24.093Z] ffedit stderr: frame=  196 fps=6.1 size=N/A time=00:00:07.80  speed=0.245x    
[2025-06-23T06:56:24.840Z] ffedit stderr: frame=  199 fps=6.1 size=N/A time=00:00:07.92  speed=0.243x    
[2025-06-23T06:56:25.581Z] ffedit stderr: frame=  202 fps=6.1 size=N/A time=00:00:08.04  speed=0.241x    
[2025-06-23T06:56:26.323Z] ffedit stderr: frame=  205 fps=6.0 size=N/A time=00:00:08.16  speed=0.239x    
[2025-06-23T06:56:27.049Z] ffedit stderr: frame=  208 fps=6.0 size=N/A time=00:00:08.28  speed=0.238x    
[2025-06-23T06:56:27.776Z] ffedit stderr: frame=  211 fps=5.9 size=N/A time=00:00:08.40  speed=0.236x    
[2025-06-23T06:56:28.505Z] ffedit stderr: frame=  214 fps=5.9 size=N/A time=00:00:08.52  speed=0.235x    
[2025-06-23T06:56:29.229Z] ffedit stderr: frame=  217 fps=5.9 size=N/A time=00:00:08.64  speed=0.233x    
[2025-06-23T06:56:29.943Z] ffedit stderr: frame=  220 fps=5.8 size=N/A time=00:00:08.76  speed=0.232x    
[2025-06-23T06:56:30.667Z] ffedit stderr: frame=  223 fps=5.8 size=N/A time=00:00:08.88  speed=0.231x    
[2025-06-23T06:56:31.385Z] ffedit stderr: frame=  226 fps=5.8 size=N/A time=00:00:09.00  speed=0.23x    
[2025-06-23T06:56:32.084Z] ffedit stderr: frame=  229 fps=5.7 size=N/A time=00:00:09.12  speed=0.229x    
[2025-06-23T06:56:32.635Z] ffedit stderr: frame=  233 fps=5.8 size=N/A time=00:00:09.28  speed=0.23x    
[2025-06-23T06:56:33.165Z] ffedit stderr: frame=  238 fps=5.8 size=N/A time=00:00:09.48  speed=0.231x    
[2025-06-23T06:56:33.667Z] ffedit stderr: frame=  394 fps=9.5 size=N/A time=00:00:15.72  speed=0.379x    
[2025-06-23T06:56:33.730Z] ffedit stderr: frame=  427 fps= 10 Lsize=N/A time=00:00:17.04  speed=0.41x    

[2025-06-23T06:56:33.774Z] Moshing temp completed successfully
[2025-06-23T06:56:33.774Z] Moshed Temp
[2025-06-23T06:56:33.774Z] Starting Baking mosh with ffmpeg
[2025-06-23T06:56:41.851Z] Baking mosh completed successfully
[2025-06-23T06:56:48.406Z] Moshing complete
[2025-06-23T06:56:49.004Z] Operation cancelled
[2025-06-23T06:59:46.971Z] Starting setup
[2025-06-23T06:59:47.464Z] Setting up paths
[2025-06-23T06:59:47.464Z] Project Path: C:\Users\EVPez\Documents\mayaREAL!!!\scenes\multi-major-year12\inder\projec\mosh
[2025-06-23T06:59:47.464Z] Deleting previous mosh
[2025-06-23T06:59:47.480Z] Got comp data
[2025-06-23T06:59:47.527Z] Got marker times
[2025-06-23T06:59:47.543Z] Setup completed
[2025-06-23T06:59:47.543Z] Rendering temp
[2025-06-23T06:59:47.543Z] Rendering to C:\Users\EVPez\Documents\mayaREAL!!!\scenes\multi-major-year12\inder\projec\mosh\Helpers\rendFile.mov
[2025-06-23T07:00:08.982Z] Rendered to C:\Users\EVPez\Documents\mayaREAL!!!\scenes\multi-major-year12\inder\projec\mosh\Helpers\rendFile.mov
[2025-06-23T07:00:10.238Z] Rendering extra temps
[2025-06-23T07:00:10.238Z] Rendering swap temp for "vs73o", timeIn: 3.16, duration: 4.52
[2025-06-23T07:00:15.200Z] Rendered swap temp for vs73o to C:\Users\EVPez\Documents\mayaREAL!!!\scenes\multi-major-year12\inder\projec\mosh\Helpers\swapTemp-vs73o.mov
[2025-06-23T07:00:15.261Z] Priming swap file for module vs73o
[2025-06-23T07:00:15.261Z] Starting Priming swap file with ffgac
[2025-06-23T07:00:17.036Z] ffgac stderr: [mov,mp4,m4a,3gp,3g2,mj2 @ 0000026e2a478940] Referenced QT chapter track not found

[2025-06-23T07:00:17.074Z] ffgac stderr: Input #0, mov,mp4,m4a,3gp,3g2,mj2, from 'C:\Users\EVPez\Documents\mayaREAL!!!\scenes\multi-major-year12\inder\projec\mosh\Helpers\swapTemp-vs73o.mov':
  Metadata:
    major_brand     : qt  
    minor_version   : 537199360
    compatible_brands: qt  
    creation_time   : 2025-06-23T07:00:12.000000Z
  Duration: 00:00:04.52, start: 
[2025-06-23T07:00:17.074Z] ffgac stderr: 0.000000, bitrate: 118435 kb/s
  Stream #0:0[0x1](eng): Video: prores (Standard) (apcn / 0x6E637061), yuv422p10le(bt709, progressive), 1920x1080, 115043 kb/s, SAR 1:1 DAR 16:9, 25 fps, 25 tbr, 25 tbn (default)
      Metadata:
        creation_time   : 2025-06-23T07:00:12.000000Z
        handler_name    : Apple Video Media Handler
        vendor_id       : appl
        encoder         : Apple ProRes 422
        timecode        : 00:00:03:04
  Stream #0:1[0x2](eng): Audio: pcm_s16le (sowt / 0x74776F73), 48000 Hz, stereo, s16, 1536 kb/s (default)
      Metadata:
        creation_time   : 2025-06-23T07:00:12.000000Z
        handler_name    : Apple Sound Media Handler
        vendor_id       :     
        timecode        : 00:00:03:04
  Stream #0:2[0x3](eng): Data: none (tmcd / 0x64636D74), 0 kb/s (default)
      Metadata:
        creation_time   : 2025-06-23T07:00:12.000000Z
        handler_name    : Time Code Media Handler
        timecode        : 00:00:03:04

[2025-06-23T07:00:17.075Z] ffgac stderr: Stream mapping:
  Stream #0:0 -> #0:0 (prores (native) -> mpeg4 (native))

[2025-06-23T07:00:17.075Z] ffgac stderr: Press [q] to stop, [?] for help

[2025-06-23T07:00:17.127Z] ffgac stderr: Output #0, rawvideo, to 'C:\Users\EVPez\Documents\mayaREAL!!!\scenes\multi-major-year12\inder\projec\mosh\Helpers\swapPrimedvs73o.mp4':
  Metadata:
    major_brand     : qt  
    minor_version   : 537199360
    compatible_brands: qt  
    encoder         : Lavf61.1.100
  Stream #0:0(eng): Video: mpeg4, yuv420p(tv, bt709, progressive), 1920x1080 [SAR 1:1 DAR 16:9], q=2-31, 200 kb/s, 25 fps, 25 tbn (default)
      Metadata:
        creation_time   : 2025-06-23T07:00:12.000000Z
        handler_name    : Apple Video Media Handler
        vendor_id       : appl
        timecode        : 00:00:03:04
        encoder         : Lavc61.3.100 mpeg4
      Side data:
        cpb: bitrate max/min/avg: 0/0/200000 buffer size: 0 vbv_delay: N/A

[2025-06-23T07:00:17.590Z] ffgac stderr: frame=   84 fps=0.0 q=0.0 size=    8704KiB time=00:00:03.36 bitrate=21221.2kbits/s speed=6.52x    
[2025-06-23T07:00:17.590Z] ffgac stderr: 
[2025-06-23T07:00:17.703Z] ffgac stderr: [out#0/rawvideo @ 0000026e2bc35580] video:11427KiB audio:0KiB subtitle:0KiB other streams:0KiB global headers:0KiB muxing overhead: 0.000000%
frame=  113 fps=0.0 q=0.0 Lsize=   11427KiB time=00:00:04.52 bitrate=20709.8kbits/s speed= 7.2x    

[2025-06-23T07:00:17.771Z] Priming swap file completed successfully
[2025-06-23T07:00:17.772Z] Primed swap file to C:\Users\EVPez\Documents\mayaREAL!!!\scenes\multi-major-year12\inder\projec\mosh\Helpers\swapPrimedvs73o.mp4
[2025-06-23T07:00:17.772Z] Exporting MVs for module vs73o
[2025-06-23T07:00:17.772Z] Starting Exporting MVs for vs73o with ffedit
[2025-06-23T07:00:19.821Z] ffedit stderr: Input #0, m4v, from 'C:\Users\EVPez\Documents\mayaREAL!!!\scenes\multi-major-year12\inder\projec\mosh\Helpers\swapPrimedvs73o.mp4':
  Duration: N/A, start: 0.000000, bitrate: N/A
  Stream #0:0: Video: mpeg4 (Simple Profile), yuv420p, 1920x1080 [SAR 1:1 DAR 16:9], 25 fps, 25 tbr, 1200k tbn

[2025-06-23T07:00:19.825Z] Exporting MVs for vs73o completed successfully
[2025-06-23T07:00:19.825Z] Finished exporting MVs for module vs73o
[2025-06-23T07:00:19.825Z] Priming main file
[2025-06-23T07:00:19.825Z] Starting Priming main file with ffgac
[2025-06-23T07:00:19.927Z] ffgac stderr: [mov,mp4,m4a,3gp,3g2,mj2 @ 0000020605968940] Referenced QT chapter track not found

[2025-06-23T07:00:19.943Z] ffgac stderr: Input #0, mov,mp4,m4a,3gp,3g2,mj2, from 'C:\Users\EVPez\Documents\mayaREAL!!!\scenes\multi-major-year12\inder\projec\mosh\Helpers\rendFile.mov':
  Metadata:
    major_brand     : qt  
    minor_version   : 537199360
    compatible_brands: qt  
    creation_time   : 2025-06-16T09:29:50.000000Z
  Duration: 00:00:17.16
[2025-06-23T07:00:19.943Z] ffgac stderr: , start: 0.000000, bitrate: 114797 kb/s
  Stream #0:0[0x1](eng): Video: prores (Standard) (apcn / 0x6E637061), yuv422p10le(bt709, progressive), 1920x1080, 112772 kb/s, SAR 1:1 DAR 16:9, 25 fps, 25 tbr, 25 tbn (default)
      Metadata:
        creation_time   : 2025-06-16T09:29:50.000000Z
        handler_name    : Apple Video Media Handler
        vendor_id       : appl
        encoder         : Apple ProRes 422
        timecode        : 00:00:00:00
  Stream #0:1[0x2](eng): Audio: pcm_s16le (sowt / 0x74776F73), 48000 Hz, stereo, s16, 1536 kb/s (default)
      Metadata:
        creation_time   : 2025-06-16T09:29:50.000000Z
        handler_name    : Apple Sound Media Handler
        vendor_id       :     
        timecode        : 00:00:00:00
  Stream #0:2[0x3](eng): Data: none (tmcd / 0x64636D74), 0 kb/s (default)
      Metadata:
        creation_time   : 2025-06-16T09:29:50.000000Z
        handler_name    : Time Code Media Handler
        timecode        : 00:00:00:00

[2025-06-23T07:00:19.944Z] ffgac stderr: Stream mapping:
  Stream #0:0 -> #0:0 (prores (native) -> mpeg4 (native))

[2025-06-23T07:00:19.944Z] ffgac stderr: Press [q] to stop, [?] for help

[2025-06-23T07:00:19.997Z] ffgac stderr: Output #0, rawvideo, to 'C:\Users\EVPez\Documents\mayaREAL!!!\scenes\multi-major-year12\inder\projec\mosh\Helpers\primedFile.mp4':
  Metadata:
    major_brand     : qt  
    minor_version   : 537199360
    compatible_brands: qt  
    encoder         : Lavf61.1.100

[2025-06-23T07:00:19.997Z] ffgac stderr:   Stream #0:0(eng): Video: mpeg4, yuv420p(tv, bt709, progressive), 1920x1080 [SAR 1:1 DAR 16:9], q=2-31, 200 kb/s, 25 fps, 25 tbn (default)
      Metadata:
        creation_time   : 2025-06-16T09:29:50.000000Z
        handler_name    : Apple Video Media Handler
        vendor_id       : appl
        timecode        : 00:00:00:00
        encoder         : Lavc61.3.100 mpeg4
      Side data:
        cpb: bitrate max/min/avg: 0/0/200000 buffer size: 0 vbv_delay: N/A

[2025-06-23T07:00:20.463Z] ffgac stderr: frame=   89 fps=0.0 q=2.0 size=    5632KiB time=00:00:03.56 bitrate=12959.9kbits/s speed=6.87x    
[2025-06-23T07:00:20.983Z] ffgac stderr: frame=  175 fps=169 q=2.0 size=   14848KiB time=00:00:07.00 bitrate=17376.4kbits/s speed=6.74x    
[2025-06-23T07:00:21.491Z] ffgac stderr: frame=  199 fps=129 q=2.0 size=   16896KiB time=00:00:07.96 bitrate=17388.4kbits/s speed=5.15x    
[2025-06-23T07:00:22.007Z] ffgac stderr: frame=  305 fps=148 q=2.0 size=   25600KiB time=00:00:12.20 bitrate=17189.8kbits/s speed=5.92x    
[2025-06-23T07:00:22.522Z] ffgac stderr: frame=  417 fps=162 q=2.0 size=   34048KiB time=00:00:16.68 bitrate=16721.9kbits/s speed=6.47x    
[2025-06-23T07:00:22.563Z] ffgac stderr: [out#0/rawvideo @ 00000206073d8ec0] video:35795KiB audio:0KiB subtitle:0KiB other streams:0KiB global headers:0KiB muxing overhead: 0.000000%
frame=  429 fps=164 q=2.0 Lsize=   35795KiB time=00:00:17.16 bitrate=17088.3kbits/s speed=6.55x    

[2025-06-23T07:00:22.587Z] Priming main file completed successfully
[2025-06-23T07:00:22.587Z] Primed main file to C:\Users\EVPez\Documents\mayaREAL!!!\scenes\multi-major-year12\inder\projec\mosh\Helpers\primedFile.mp4
[2025-06-23T07:00:22.587Z] Starting RF splitting 0 with ffmpeg
[2025-06-23T07:00:27.484Z] ffmpeg stderr: Input #0, m4v, from 'C:\Users\EVPez\Documents\mayaREAL!!!\scenes\multi-major-year12\inder\projec\mosh\Helpers\primedFile.mp4':
  Duration: N/A, start: 0.000000, bitrate: N/A

[2025-06-23T07:00:27.484Z] ffmpeg stderr:   Stream #0:0: Video: mpeg4 (Simple Profile), yuv420p, 1920x1080 [SAR 1:1 DAR 16:9], 25 fps, 25 tbr, 1200k tbn

[2025-06-23T07:00:27.485Z] ffmpeg stderr: Stream mapping:
  Stream #0:0 -> #0:0 (copy)

[2025-06-23T07:00:27.485Z] ffmpeg stderr: Output #0, mp4, to 'C:\Users\EVPez\Documents\mayaREAL!!!\scenes\multi-major-year12\inder\projec\mosh\Helpers\rfSplitFile0.mp4':
  Metadata:
    encoder         : Lavf61.1.100

[2025-06-23T07:00:27.485Z] ffmpeg stderr:   Stream #0:0: Video: mpeg4 (Simple Profile) (mp4v / 0x7634706D), yuv420p, 1920x1080 [SAR 1:1 DAR 16:9], q=2-31, 25 fps, 25 tbr, 1200k tbn
Press [q] to stop, [?] for help

[2025-06-23T07:00:27.493Z] ffmpeg stderr: [out#0/mp4 @ 0000015b5617fd40] video:5033KiB audio:0KiB subtitle:0KiB other streams:0KiB global headers:0KiB muxing overhead: 0.025128%
size=    5034KiB time=00:00:03.24 bitrate=12728.3kbits/s speed= 411x    

[2025-06-23T07:00:27.497Z] RF splitting 0 completed successfully
[2025-06-23T07:00:27.497Z] Finished RF splitting 0: startTime=0, duration=3.2
[2025-06-23T07:00:27.497Z] Starting RF splitting 1 with ffmpeg
[2025-06-23T07:00:27.741Z] ffmpeg stderr: Input #0, m4v, from 'C:\Users\EVPez\Documents\mayaREAL!!!\scenes\multi-major-year12\inder\projec\mosh\Helpers\primedFile.mp4':
  Duration: N/A, start: 0.000000, bitrate: N/A

[2025-06-23T07:00:27.741Z] ffmpeg stderr:   Stream #0:0: Video: mpeg4 (Simple Profile), yuv420p, 1920x1080 [SAR 1:1 DAR 16:9], 25 fps, 25 tbr, 1200k tbn

[2025-06-23T07:00:27.741Z] ffmpeg stderr: Stream mapping:
  Stream #0:0 -> #0:0 (copy)

[2025-06-23T07:00:27.742Z] ffmpeg stderr: Output #0, mp4, to 'C:\Users\EVPez\Documents\mayaREAL!!!\scenes\multi-major-year12\inder\projec\mosh\Helpers\rfSplitFile1.mp4':
  Metadata:
    encoder         : Lavf61.1.100
  Stream #0:0: Video: mpeg4 (Simple Profile) (mp4v / 0x7634706D), yuv420p, 1920x1080 [SAR 1:1 DAR 16:9], q=2-31, 25 fps, 25 tbr, 1200k tbn

[2025-06-23T07:00:27.742Z] ffmpeg stderr: Press [q] to stop, [?] for help

[2025-06-23T07:00:27.788Z] ffmpeg stderr: [out#0/mp4 @ 00000109ea61fd40] video:30553KiB audio:0KiB subtitle:0KiB other streams:0KiB global headers:0KiB muxing overhead: 0.008627%
size=   30555KiB time=00:00:17.16 bitrate=14586.8kbits/s speed= 368x    

[2025-06-23T07:00:27.792Z] RF splitting 1 completed successfully
[2025-06-23T07:00:27.792Z] Finished RF splitting 1: startTime=3.2800000000000002, duration=13.879999999999999
[2025-06-23T07:00:27.795Z] Starting RF concatenating with ffmpeg
[2025-06-23T07:00:28.028Z] ffmpeg stderr: Input #0, concat, from 'C:\Users\EVPez\Documents\mayaREAL!!!\scenes\multi-major-year12\inder\projec\mosh\Helpers\rfSplitList.txt':
  Duration: N/A, start: 0.000000, bitrate: 12884 kb/s
  Stream #0:0(und): Video: mpeg4 (Simple Profile) (mp4v / 0x7634706D), yuv420p, 1920x1080 [SAR 1:1 DAR 16:9], 12884 kb/s, 25 fps, 25 tbr, 1200k tbn
      Metadata:
        handler_name    : VideoHandler
        vendor_id       : [0][0][0][0]

[2025-06-23T07:00:28.030Z] ffmpeg stderr: Stream mapping:
  Stream #0:0 -> #0:0 (copy)

[2025-06-23T07:00:28.030Z] ffmpeg stderr: Output #0, mp4, to 'C:\Users\EVPez\Documents\mayaREAL!!!\scenes\multi-major-year12\inder\projec\mosh\Helpers\rfConcatFile.mp4':
  Metadata:
    encoder         : Lavf61.1.100
  Stream #0:0(und): Video: mpeg4 (Simple Profile) (mp4v / 0x7634706D), yuv420p, 1920x1080 [SAR 1:1 DAR 16:9], q=2-31, 12884 kb/s, 25 fps, 25 tbr, 1200k tbn
      Metadata:
        handler_name    : VideoHandler

[2025-06-23T07:00:28.030Z] ffmpeg stderr:         vendor_id       : [0][0][0][0]

[2025-06-23T07:00:28.030Z] ffmpeg stderr: Press [q] to stop, [?] for help

[2025-06-23T07:00:28.055Z] ffmpeg stderr: [out#0/mp4 @ 000001c4d472bac0] video:35586KiB audio:0KiB subtitle:0KiB other streams:0KiB global headers:0KiB muxing overhead: 0.012346%
size=   35590KiB time=00:00:17.08 bitrate=17069.8kbits/s speed= 676x    

[2025-06-23T07:00:28.059Z] RF concatenating completed successfully
[2025-06-23T07:00:28.059Z] Finished RF concatenating
[2025-06-23T07:00:28.059Z] No hold frames detected, skipping HF processing
[2025-06-23T07:00:28.059Z] Generating Glitch Doc
[2025-06-23T07:00:28.059Z] Copying Glitch Doc from C:\Program Files (x86)\Common Files\Adobe\CEP\extensions\com.aescripts.datamosh2\bin\ffmpeg\glitchDocTemp.js to C:\Users\EVPez\Documents\mayaREAL!!!\scenes\multi-major-year12\inder\projec\mosh\Helpers\glitchDoc.js
[2025-06-23T07:00:28.059Z] Collecting MV data for 1 swap modules
[2025-06-23T07:00:28.256Z] Creating mosh instructions
[2025-06-23T07:00:28.256Z] Writing Glitch Doc
[2025-06-23T07:00:28.386Z] Finished writing Glitch Doc
[2025-06-23T07:00:28.386Z] Glitch Doc generated successfully
[2025-06-23T07:00:28.386Z] Moshing Temp
[2025-06-23T07:00:28.386Z] Starting Moshing temp with ffedit
[2025-06-23T07:00:30.967Z] ffedit stderr: Input #0, mov,mp4,m4a,3gp,3g2,mj2, from 'C:\Users\EVPez\Documents\mayaREAL!!!\scenes\multi-major-year12\inder\projec\mosh\Helpers\rfConcatFile.mp4':
  Metadata:
    major_brand     : isom
    minor_version   : 512
    compatible_brands: isomiso2mp41
    encoder         : Lavf61.1.100
  Duration: 00:00:17.08, start: 0.000000, bitrate: 17069 kb/s
  Stream #0:0[0x1](und): Video: mpeg4 (Simple Profile) (mp4v / 0x7634706D), yuv420p, 1920x1080 [SAR 1:1 DAR 16:9], 17067 kb/s, 25 fps, 25 tbr, 1200k tbn (default)
      Metadata:
        handler_name    : VideoHandler
        vendor_id       : [0][0][0][0]
frame=   78 fps=0.0 size=N/A time=00:00:03.08  speed=6.02x    
[2025-06-23T07:00:31.533Z] ffedit stderr: frame=   88 fps= 82 size=N/A time=00:00:03.48  speed=3.23x    
[2025-06-23T07:00:32.052Z] ffedit stderr: frame=   91 fps= 57 size=N/A time=00:00:03.60  speed=2.26x    
[2025-06-23T07:00:32.584Z] ffedit stderr: frame=   94 fps= 44 size=N/A time=00:00:03.72  speed=1.75x    
[2025-06-23T07:00:33.120Z] ffedit stderr: frame=   97 fps= 36 size=N/A time=00:00:03.84  speed=1.44x    
[2025-06-23T07:00:33.660Z] ffedit stderr: frame=  100 fps= 31 size=N/A time=00:00:03.96  speed=1.24x    
[2025-06-23T07:00:34.193Z] ffedit stderr: frame=  103 fps= 28 size=N/A time=00:00:04.08  speed=1.09x    
[2025-06-23T07:00:34.725Z] ffedit stderr: frame=  106 fps= 25 size=N/A time=00:00:04.20  speed=0.984x    
[2025-06-23T07:00:35.238Z] ffedit stderr: frame=  109 fps= 23 size=N/A time=00:00:04.32  speed=0.903x    
[2025-06-23T07:00:35.755Z] ffedit stderr: frame=  112 fps= 21 size=N/A time=00:00:04.44  speed=0.838x    
[2025-06-23T07:00:36.274Z] ffedit stderr: frame=  121 fps= 21 size=N/A time=00:00:04.80  speed=0.825x    
[2025-06-23T07:00:36.781Z] ffedit stderr: frame=  133 fps= 21 size=N/A time=00:00:05.28  speed=0.835x    
[2025-06-23T07:00:37.288Z] ffedit stderr: frame=  145 fps= 21 size=N/A time=00:00:05.76  speed=0.843x    
[2025-06-23T07:00:37.797Z] ffedit stderr: frame=  157 fps= 21 size=N/A time=00:00:06.24  speed=0.85x    
[2025-06-23T07:00:38.300Z] ffedit stderr: frame=  169 fps= 22 size=N/A time=00:00:06.72  speed=0.857x    
[2025-06-23T07:00:38.839Z] ffedit stderr: frame=  182 fps= 22 size=N/A time=00:00:07.24  speed=0.864x    
[2025-06-23T07:00:39.376Z] ffedit stderr: frame=  196 fps= 22 size=N/A time=00:00:07.80  speed=0.874x    
[2025-06-23T07:00:39.889Z] ffedit stderr: frame=  209 fps= 22 size=N/A time=00:00:08.32  speed=0.882x    
[2025-06-23T07:00:40.393Z] ffedit stderr: frame=  221 fps= 22 size=N/A time=00:00:08.80  speed=0.886x    
[2025-06-23T07:00:40.934Z] ffedit stderr: frame=  234 fps= 22 size=N/A time=00:00:09.32  speed=0.89x    
[2025-06-23T07:00:41.440Z] ffedit stderr: frame=  246 fps= 22 size=N/A time=00:00:09.80  speed=0.892x    
[2025-06-23T07:00:41.944Z] ffedit stderr: frame=  258 fps= 22 size=N/A time=00:00:10.28  speed=0.895x    
[2025-06-23T07:00:42.448Z] ffedit stderr: frame=  270 fps= 23 size=N/A time=00:00:10.76  speed=0.897x    
[2025-06-23T07:00:42.950Z] ffedit stderr: frame=  390 fps= 31 size=N/A time=00:00:15.56  speed=1.25x    
[2025-06-23T07:00:43.028Z] ffedit stderr: frame=  427 fps= 34 Lsize=N/A time=00:00:17.04  speed=1.36x    

[2025-06-23T07:00:43.358Z] Moshing temp completed successfully
[2025-06-23T07:00:43.358Z] Moshed Temp
[2025-06-23T07:00:43.358Z] Starting Baking mosh with ffmpeg
[2025-06-23T07:00:50.768Z] Baking mosh completed successfully
[2025-06-23T07:00:52.544Z] Moshing complete
[2025-06-23T07:00:52.556Z] Operation cancelled
[2025-06-23T07:01:57.731Z] Starting setup
[2025-06-23T07:01:57.984Z] Setting up paths
[2025-06-23T07:01:57.984Z] Project Path: C:\Users\EVPez\Documents\mayaREAL!!!\scenes\multi-major-year12\inder\projec\mosh
[2025-06-23T07:01:57.984Z] Deleting previous mosh
[2025-06-23T07:01:58.003Z] Got comp data
[2025-06-23T07:01:58.057Z] Got marker times
[2025-06-23T07:01:58.073Z] Setup completed
[2025-06-23T07:01:58.073Z] Rendering temp
[2025-06-23T07:01:58.073Z] Rendering to C:\Users\EVPez\Documents\mayaREAL!!!\scenes\multi-major-year12\inder\projec\mosh\Helpers\rendFile.mov
[2025-06-23T07:02:12.123Z] Rendered to C:\Users\EVPez\Documents\mayaREAL!!!\scenes\multi-major-year12\inder\projec\mosh\Helpers\rendFile.mov
[2025-06-23T07:02:12.166Z] Rendering extra temps
[2025-06-23T07:02:12.166Z] Rendering swap temp for "vs73o", timeIn: 3.16, duration: 4.52
[2025-06-23T07:02:14.613Z] Rendered swap temp for vs73o to C:\Users\EVPez\Documents\mayaREAL!!!\scenes\multi-major-year12\inder\projec\mosh\Helpers\swapTemp-vs73o.mov
[2025-06-23T07:02:14.682Z] Priming swap file for module vs73o
[2025-06-23T07:02:14.682Z] Starting Priming swap file with ffgac
[2025-06-23T07:02:17.334Z] ffgac stderr: [mov,mp4,m4a,3gp,3g2,mj2 @ 000002a6f6dc8940] Referenced QT chapter track not found

[2025-06-23T07:02:17.348Z] ffgac stderr: Input #0, mov,mp4,m4a,3gp,3g2,mj2, from 'C:\Users\EVPez\Documents\mayaREAL!!!\scenes\multi-major-year12\inder\projec\mosh\Helpers\swapTemp-vs73o.mov':
  Metadata:
    major_brand     : qt  
    minor_version   : 537199360
    compatible_brands: qt  
    creation_time   : 2025-06-23T07:00:12.000000Z
  Duration: 00:00:04.52, start: 0.000000, bitrate: 118435 kb/s

[2025-06-23T07:02:17.348Z] ffgac stderr:   Stream #0:0[0x1](eng): Video: prores (Standard) (apcn / 0x6E637061), yuv422p10le(bt709, progressive), 1920x1080, 115043 kb/s, SAR 1:1 DAR 16:9, 25 fps, 25 tbr, 25 tbn (default)
      Metadata:
        creation_time   : 2025-06-23T07:00:12.000000Z
        handler_name    : Apple Video Media Handler
        vendor_id       : appl
        encoder         : Apple ProRes 422
        timecode        : 00:00:03:04
  Stream #0:1[0x2](eng): Audio: pcm_s16le (sowt / 0x74776F73), 48000 Hz, stereo, s16, 1536 kb/s (default)
      Metadata:
        creation_time   : 2025-06-23T07:00:12.000000Z
        handler_name    : Apple Sound Media Handler
        vendor_id       :     
        timecode        : 00:00:03:04
  Stream #0:2[0x3](eng): Data: none (tmcd / 0x64636D74), 0 kb/s (default)
      Metadata:
        creation_time   : 2025-06-23T07:00:12.000000Z
        handler_name    : Time Code Media Handler
        timecode        : 00:00:03:04

[2025-06-23T07:02:17.350Z] ffgac stderr: Stream mapping:
  Stream #0:0 -> #0:0 (prores (native) -> mpeg4 (native))
Press [q] to stop, [?] for help

[2025-06-23T07:02:17.401Z] ffgac stderr: Output #0, rawvideo, to 'C:\Users\EVPez\Documents\mayaREAL!!!\scenes\multi-major-year12\inder\projec\mosh\Helpers\swapPrimedvs73o.mp4':
  Metadata:
    major_brand     : qt  
    minor_version   : 537199360
    compatible_brands: qt  
    encoder         : Lavf61.1.100

[2025-06-23T07:02:17.401Z] ffgac stderr:   Stream #0:0(eng): Video: mpeg4, yuv420p(tv, bt709, progressive), 1920x1080 [SAR 1:1 DAR 16:9], q=2-31, 200 kb/s, 25 fps, 25 tbn (default)
      Metadata:
        creation_time   : 2025-06-23T07:00:12.000000Z
        handler_name    : Apple Video Media Handler
        vendor_id       : appl
        timecode        : 00:00:03:04
        encoder         : Lavc61.3.100 mpeg4
      Side data:
        cpb: bitrate max/min/avg: 0/0/200000 buffer size: 0 vbv_delay: N/A

[2025-06-23T07:02:17.869Z] ffgac stderr: frame=   82 fps=0.0 q=0.0 size=    8448KiB time=00:00:03.28 bitrate=21099.4kbits/s speed=6.32x    
[2025-06-23T07:02:17.979Z] ffgac stderr: [out#0/rawvideo @ 000002a6f8585580] video:11427KiB audio:0KiB subtitle:0KiB other streams:0KiB global headers:0KiB muxing overhead: 0.000000%
frame=  113 fps=0.0 q=0.0 Lsize=   11427KiB time=00:00:04.52 bitrate=20709.8kbits/s speed=7.17x    

[2025-06-23T07:02:18.009Z] Priming swap file completed successfully
[2025-06-23T07:02:18.009Z] Primed swap file to C:\Users\EVPez\Documents\mayaREAL!!!\scenes\multi-major-year12\inder\projec\mosh\Helpers\swapPrimedvs73o.mp4
[2025-06-23T07:02:18.009Z] Exporting MVs for module vs73o
[2025-06-23T07:02:18.009Z] Starting Exporting MVs for vs73o with ffedit
[2025-06-23T07:02:18.608Z] ffedit stderr: Input #0, m4v, from 'C:\Users\EVPez\Documents\mayaREAL!!!\scenes\multi-major-year12\inder\projec\mosh\Helpers\swapPrimedvs73o.mp4':
  Duration: N/A, start: 0.000000, bitrate: N/A
  Stream #0:0: Video: mpeg4 (Simple Profile), yuv420p, 1920x1080 [SAR 1:1 DAR 16:9], 25 fps, 25 tbr, 1200k tbn

[2025-06-23T07:02:18.612Z] Exporting MVs for vs73o completed successfully
[2025-06-23T07:02:18.612Z] Finished exporting MVs for module vs73o
[2025-06-23T07:02:18.612Z] Priming main file
[2025-06-23T07:02:18.612Z] Starting Priming main file with ffgac
[2025-06-23T07:02:18.721Z] ffgac stderr: [mov,mp4,m4a,3gp,3g2,mj2 @ 0000023d2e038940] Referenced QT chapter track not found

[2025-06-23T07:02:18.738Z] ffgac stderr: Input #0, mov,mp4,m4a,3gp,3g2,mj2, from 'C:\Users\EVPez\Documents\mayaREAL!!!\scenes\multi-major-year12\inder\projec\mosh\Helpers\rendFile.mov':
  Metadata:
    major_brand     : qt  
    minor_version   : 537199360
    compatible_brands: qt  
    creation_time   : 2025-06-16T09:29:50.000000Z
  Duration: 00:00:17.16, start: 0.000000, bitrate: 114797 kb/s
  Stream #0:0[0x1](eng): Video: prores (Standard) (apcn / 0x6E637061), yuv422p10le(bt709, progressive), 1920x1080, 112772 kb/s, SAR 1:1 DAR 16:9, 25 fps, 25 tbr, 25 tbn (default)
      Metadata:
        creation_time   : 2025-06-16T09:29:50.000000Z
        handler_name    : Apple Video Media Handler
        vendor_id       : appl
        encoder         : Apple ProRes 422
        timecode        : 00:00:00:00
  Stream #0:1[0x2](eng): Audio: pcm_s16le (sowt / 0x74776F73), 48000 Hz, stereo, s16, 1536 kb/s (default)
      Metadata:
        creation_time   : 2025-06-16T09:29:50.000000Z
        handler_name    : Apple Sound Media Handler
        vendor_id       :     
        timecode        : 00:00:00:00
  Stream #0:2[0x3](eng): Data: none (tmcd / 0x64636D74), 0 kb/s (default)
      Metadata:
        creation_time   : 2025-06-16T09:29:50.000000Z
        handler_name    : Time Code Media Handler
        timecode        : 00:00:00:00

[2025-06-23T07:02:18.738Z] ffgac stderr: Stream mapping:
  Stream #0:0 -> #0:0 (prores (native) -> mpeg4 (native))

[2025-06-23T07:02:18.738Z] ffgac stderr: Press [q] to stop, [?] for help

[2025-06-23T07:02:18.789Z] ffgac stderr: Output #0, rawvideo, to 'C:\Users\EVPez\Documents\mayaREAL!!!\scenes\multi-major-year12\inder\projec\mosh\Helpers\primedFile.mp4':
  Metadata:
    major_brand     : qt  
    minor_version   : 537199360
    compatible_brands: qt  
    encoder         : Lavf61.1.100
[2025-06-23T07:02:18.789Z] ffgac stderr: 
  Stream #0:0(eng): Video: mpeg4, yuv420p(tv, bt709, progressive), 1920x1080 [SAR 1:1 DAR 16:9], q=2-31, 200 kb/s, 25 fps, 25 tbn (default)
      Metadata:
        creation_time   : 2025-06-16T09:29:50.000000Z
        handler_name    : Apple Video Media Handler
        vendor_id       : appl
        timecode        : 00:00:00:00
        encoder         : Lavc61.3.100 mpeg4
      Side data:
        cpb: bitrate max/min/avg: 0/0/200000 buffer size: 0 vbv_delay: N/A

[2025-06-23T07:02:19.256Z] ffgac stderr: frame=   91 fps=0.0 q=2.0 size=    5888KiB time=00:00:03.64 bitrate=13251.2kbits/s speed=7.03x    
[2025-06-23T07:02:19.772Z] ffgac stderr: frame=  191 fps=185 q=2.0 size=   16128KiB time=00:00:07.64 bitrate=17293.3kbits/s speed=7.39x    
[2025-06-23T07:02:20.297Z] ffgac stderr: frame=  298 fps=191 q=2.0 size=   25344KiB time=00:00:11.92 bitrate=17417.6kbits/s speed=7.66x    
[2025-06-23T07:02:20.814Z] ffgac stderr: frame=  413 fps=199 q=2.0 size=   33536KiB time=00:00:16.52 bitrate=16630.0kbits/s speed=7.96x    
[2025-06-23T07:02:20.871Z] ffgac stderr: [out#0/rawvideo @ 0000023d2f8c8ec0] video:35795KiB audio:0KiB subtitle:0KiB other streams:0KiB global headers:0KiB muxing overhead: 0.000000%
frame=  429 fps=201 q=2.0 Lsize=   35795KiB time=00:00:17.16 bitrate=17088.3kbits/s speed=8.05x    

[2025-06-23T07:02:20.898Z] Priming main file completed successfully
[2025-06-23T07:02:20.898Z] Primed main file to C:\Users\EVPez\Documents\mayaREAL!!!\scenes\multi-major-year12\inder\projec\mosh\Helpers\primedFile.mp4
[2025-06-23T07:02:20.899Z] Starting RF splitting 0 with ffmpeg
[2025-06-23T07:02:22.856Z] ffmpeg stderr: Input #0, m4v, from 'C:\Users\EVPez\Documents\mayaREAL!!!\scenes\multi-major-year12\inder\projec\mosh\Helpers\primedFile.mp4':
  Duration: N/A, start: 0.000000, bitrate: N/A

[2025-06-23T07:02:22.856Z] ffmpeg stderr:   Stream #0:0: Video: mpeg4 (Simple Profile), yuv420p, 1920x1080 [SAR 1:1 DAR 16:9], 25 fps, 25 tbr, 1200k tbn

[2025-06-23T07:02:22.856Z] ffmpeg stderr: Stream mapping:
  Stream #0:0 -> #0:0 (copy)

[2025-06-23T07:02:22.856Z] ffmpeg stderr: Output #0, mp4, to 'C:\Users\EVPez\Documents\mayaREAL!!!\scenes\multi-major-year12\inder\projec\mosh\Helpers\rfSplitFile0.mp4':
  Metadata:
    encoder         : Lavf61.1.100
  Stream #0:0: Video: mpeg4 (Simple Profile) (mp4v / 0x7634706D), yuv420p, 1920x1080 [SAR 1:1 DAR 16:9], q=2-31, 25 fps, 25 tbr, 1200k tbn

[2025-06-23T07:02:22.857Z] ffmpeg stderr: Press [q] to stop, [?] for help

[2025-06-23T07:02:22.867Z] ffmpeg stderr: [out#0/mp4 @ 000001f30e2dfd40] video:5033KiB audio:0KiB subtitle:0KiB other streams:0KiB global headers:0KiB muxing overhead: 0.025128%
size=    5034KiB time=00:00:03.24 bitrate=12728.3kbits/s speed= 307x    

[2025-06-23T07:02:22.871Z] RF splitting 0 completed successfully
[2025-06-23T07:02:22.871Z] Finished RF splitting 0: startTime=0, duration=3.2
[2025-06-23T07:02:22.871Z] Starting RF splitting 1 with ffmpeg
[2025-06-23T07:02:23.114Z] ffmpeg stderr: Input #0, m4v, from 'C:\Users\EVPez\Documents\mayaREAL!!!\scenes\multi-major-year12\inder\projec\mosh\Helpers\primedFile.mp4':
  Duration: N/A, start: 0.000000, bitrate: N/A

[2025-06-23T07:02:23.114Z] ffmpeg stderr:   Stream #0:0: Video: mpeg4 (Simple Profile), yuv420p, 1920x1080 [SAR 1:1 DAR 16:9], 25 fps, 25 tbr, 1200k tbn

[2025-06-23T07:02:23.114Z] ffmpeg stderr: Stream mapping:
  Stream #0:0 -> #0:0 (copy)

[2025-06-23T07:02:23.114Z] ffmpeg stderr: Output #0, mp4, to 'C:\Users\EVPez\Documents\mayaREAL!!!\scenes\multi-major-year12\inder\projec\mosh\Helpers\rfSplitFile1.mp4':
  Metadata:
    encoder         : Lavf61.1.100

[2025-06-23T07:02:23.114Z] ffmpeg stderr:   Stream #0:0: Video: mpeg4 (Simple Profile) (mp4v / 0x7634706D), yuv420p, 1920x1080 [SAR 1:1 DAR 16:9], q=2-31, 25 fps, 25 tbr, 1200k tbn

[2025-06-23T07:02:23.114Z] ffmpeg stderr: Press [q] to stop, [?] for help

[2025-06-23T07:02:23.160Z] ffmpeg stderr: [out#0/mp4 @ 000001f74e67fd40] video:30553KiB audio:0KiB subtitle:0KiB other streams:0KiB global headers:0KiB muxing overhead: 0.008627%
size=   30555KiB time=00:00:17.16 bitrate=14586.8kbits/s speed= 376x    

[2025-06-23T07:02:23.164Z] RF splitting 1 completed successfully
[2025-06-23T07:02:23.164Z] Finished RF splitting 1: startTime=3.2800000000000002, duration=13.879999999999999
[2025-06-23T07:02:23.165Z] Starting RF concatenating with ffmpeg
[2025-06-23T07:02:23.398Z] ffmpeg stderr: Input #0, concat, from 'C:\Users\EVPez\Documents\mayaREAL!!!\scenes\multi-major-year12\inder\projec\mosh\Helpers\rfSplitList.txt':
  Duration: N/A, start: 0.000000, bitrate: 12884 kb/s
  Stream #0:0(und): Video: mpeg4 (Simple Profile) (mp4v / 0x7634706D), yuv420p, 1920x1080 [SAR 1:1 DAR 16:9], 12884 kb/s, 25 fps, 25 tbr, 1200k tbn
      Metadata:
        handler_name    : VideoHandler
        vendor_id       : [0][0][0][0]
Stream mapping:
  Stream #0:0 -> #0:0 (copy)
Output #0, mp4, to 'C:\Users\EVPez\Documents\mayaREAL!!!\scenes\multi-major-year12\inder\projec\mosh\Helpers\rfConcatFile.mp4':
  Metadata:
    encoder         : Lavf61.1.100
  Stream #0:0(und): Video: mpeg4 (Simple Profile) (mp4v / 0x7634706D), yuv420p, 1920x1080 [SAR 1:1 DAR 16:9], q=2-31, 12884 kb/s, 25 fps, 25 tbr, 1200k tbn
      Metadata:
        handler_name    : VideoHandler
        vendor_id       : [0][0][0][0]
Press [q] to stop, [?] for help

[2025-06-23T07:02:23.423Z] ffmpeg stderr: [out#0/mp4 @ 000001b55796bac0] video:35586KiB audio:0KiB subtitle:0KiB other streams:0KiB global headers:0KiB muxing overhead: 0.012346%
size=   35590KiB time=00:00:17.08 bitrate=17069.8kbits/s speed= 702x    

[2025-06-23T07:02:23.425Z] RF concatenating completed successfully
[2025-06-23T07:02:23.425Z] Finished RF concatenating
[2025-06-23T07:02:23.425Z] No hold frames detected, skipping HF processing
[2025-06-23T07:02:23.425Z] Generating Glitch Doc
[2025-06-23T07:02:23.425Z] Copying Glitch Doc from C:\Program Files (x86)\Common Files\Adobe\CEP\extensions\com.aescripts.datamosh2\bin\ffmpeg\glitchDocTemp.js to C:\Users\EVPez\Documents\mayaREAL!!!\scenes\multi-major-year12\inder\projec\mosh\Helpers\glitchDoc.js
[2025-06-23T07:02:23.425Z] Collecting MV data for 1 swap modules
[2025-06-23T07:02:23.625Z] Creating mosh instructions
[2025-06-23T07:02:23.625Z] Writing Glitch Doc
[2025-06-23T07:02:23.743Z] Finished writing Glitch Doc
[2025-06-23T07:02:23.743Z] Glitch Doc generated successfully
[2025-06-23T07:02:23.743Z] Moshing Temp
[2025-06-23T07:02:23.743Z] Starting Moshing temp with ffedit
[2025-06-23T07:02:26.579Z] ffedit stderr: Input #0, mov,mp4,m4a,3gp,3g2,mj2, from 'C:\Users\EVPez\Documents\mayaREAL!!!\scenes\multi-major-year12\inder\projec\mosh\Helpers\rfConcatFile.mp4':
  Metadata:
    major_brand     : isom
    minor_version   : 512
    compatible_brands: isomiso2mp41
    encoder         : Lavf61.1.100
  Duration: 00:00:17.08, start: 0.000000, bitrate: 17069 kb/s
  Stream #0:0[0x1](und): Video: mpeg4 (Simple Profile) (mp4v / 0x7634706D), yuv420p, 1920x1080 [SAR 1:1 DAR 16:9], 17067 kb/s, 25 fps, 25 tbr, 1200k tbn (default)
      Metadata:
        handler_name    : VideoHandler
        vendor_id       : [0][0][0][0]
frame=   78 fps=0.0 size=N/A time=00:00:03.08  speed=6.08x    
[2025-06-23T07:02:27.149Z] ffedit stderr: frame=   88 fps= 82 size=N/A time=00:00:03.48  speed=3.23x    
[2025-06-23T07:02:27.660Z] ffedit stderr: frame=   91 fps= 57 size=N/A time=00:00:03.60  speed=2.27x    
[2025-06-23T07:02:28.179Z] ffedit stderr: frame=   94 fps= 45 size=N/A time=00:00:03.72  speed=1.77x    
[2025-06-23T07:02:28.685Z] ffedit stderr: frame=   97 fps= 37 size=N/A time=00:00:03.84  speed=1.47x    
[2025-06-23T07:02:29.201Z] ffedit stderr: frame=  100 fps= 32 size=N/A time=00:00:03.96  speed=1.27x    
[2025-06-23T07:02:29.705Z] ffedit stderr: frame=  103 fps= 28 size=N/A time=00:00:04.08  speed=1.12x    
[2025-06-23T07:02:30.222Z] ffedit stderr: frame=  106 fps= 26 size=N/A time=00:00:04.20  speed=1.01x    
[2025-06-23T07:02:30.737Z] ffedit stderr: frame=  109 fps= 23 size=N/A time=00:00:04.32  speed=0.926x    
[2025-06-23T07:02:31.240Z] ffedit stderr: frame=  112 fps= 22 size=N/A time=00:00:04.44  speed=0.859x    
[2025-06-23T07:02:31.782Z] ffedit stderr: frame=  122 fps= 21 size=N/A time=00:00:04.84  speed=0.848x    
[2025-06-23T07:02:32.296Z] ffedit stderr: frame=  134 fps= 22 size=N/A time=00:00:05.32  speed=0.855x    
[2025-06-23T07:02:32.802Z] ffedit stderr: frame=  146 fps= 22 size=N/A time=00:00:05.80  speed=0.862x    
[2025-06-23T07:02:33.312Z] ffedit stderr: frame=  158 fps= 22 size=N/A time=00:00:06.28  speed=0.867x    
[2025-06-23T07:02:33.822Z] ffedit stderr: frame=  170 fps= 22 size=N/A time=00:00:06.76  speed=0.872x    
[2025-06-23T07:02:34.328Z] ffedit stderr: frame=  182 fps= 22 size=N/A time=00:00:07.24  speed=0.877x    
[2025-06-23T07:02:34.834Z] ffedit stderr: frame=  195 fps= 22 size=N/A time=00:00:07.76  speed=0.886x    
[2025-06-23T07:02:35.347Z] ffedit stderr: frame=  208 fps= 22 size=N/A time=00:00:08.28  speed=0.893x    
[2025-06-23T07:02:35.877Z] ffedit stderr: frame=  221 fps= 23 size=N/A time=00:00:08.80  speed=0.898x    
[2025-06-23T07:02:36.412Z] ffedit stderr: frame=  234 fps= 23 size=N/A time=00:00:09.32  speed=0.901x    
[2025-06-23T07:02:36.947Z] ffedit stderr: frame=  247 fps= 23 size=N/A time=00:00:09.84  speed=0.905x    
[2025-06-23T07:02:37.483Z] ffedit stderr: frame=  260 fps= 23 size=N/A time=00:00:10.36  speed=0.908x    
[2025-06-23T07:02:38.013Z] ffedit stderr: frame=  273 fps= 23 size=N/A time=00:00:10.88  speed=0.911x    
[2025-06-23T07:02:38.458Z] ffedit stderr: frame=  427 fps= 34 Lsize=N/A time=00:00:17.04  speed=1.38x    

[2025-06-23T07:02:38.781Z] Moshing temp completed successfully
[2025-06-23T07:02:38.781Z] Moshed Temp
[2025-06-23T07:02:38.781Z] Starting Baking mosh with ffmpeg
[2025-06-23T07:02:46.420Z] Baking mosh completed successfully
[2025-06-23T07:02:48.397Z] Moshing complete
[2025-06-23T07:02:48.405Z] Operation cancelled
[2025-06-23T07:05:08.348Z] Starting setup
[2025-06-23T07:05:08.546Z] Setting up paths
[2025-06-23T07:05:08.546Z] Project Path: C:\Users\EVPez\Documents\mayaREAL!!!\scenes\multi-major-year12\inder\projec\mosh
[2025-06-23T07:05:08.547Z] Deleting previous mosh
[2025-06-23T07:05:08.564Z] Got comp data
[2025-06-23T07:05:08.621Z] Got marker times
[2025-06-23T07:05:08.637Z] Setup completed
[2025-06-23T07:05:08.637Z] Rendering temp
[2025-06-23T07:05:08.637Z] Rendering to C:\Users\EVPez\Documents\mayaREAL!!!\scenes\multi-major-year12\inder\projec\mosh\Helpers\rendFile.mov
[2025-06-23T07:05:19.194Z] Rendered to C:\Users\EVPez\Documents\mayaREAL!!!\scenes\multi-major-year12\inder\projec\mosh\Helpers\rendFile.mov
[2025-06-23T07:05:19.238Z] Rendering extra temps
[2025-06-23T07:05:19.238Z] Rendering swap temp for "vs73o", timeIn: 3.16, duration: 4.52
[2025-06-23T07:05:22.353Z] Rendered swap temp for vs73o to C:\Users\EVPez\Documents\mayaREAL!!!\scenes\multi-major-year12\inder\projec\mosh\Helpers\swapTemp-vs73o.mov
[2025-06-23T07:05:22.409Z] Priming swap file for module vs73o
[2025-06-23T07:05:22.409Z] Starting Priming swap file with ffgac
[2025-06-23T07:05:22.750Z] ffgac stderr: [mov,mp4,m4a,3gp,3g2,mj2 @ 00000164bb278940] Referenced QT chapter track not found

[2025-06-23T07:05:22.777Z] ffgac stderr: Input #0, mov,mp4,m4a,3gp,3g2,mj2, from 'C:\Users\EVPez\Documents\mayaREAL!!!\scenes\multi-major-year12\inder\projec\mosh\Helpers\swapTemp-vs73o.mov':
  Metadata:
    major_brand     : qt  
    minor_version   : 537199360
    compatible_brands: qt  
    creation_time   : 2025-06-23T07:00:12.000000Z
  Duration: 00:00:04.52, start: 
[2025-06-23T07:05:22.777Z] ffgac stderr: 0.000000, bitrate: 118435 kb/s
  Stream #0:0[0x1](eng): Video: prores (Standard) (apcn / 0x6E637061), yuv422p10le(bt709, progressive), 1920x1080, 115043 kb/s, SAR 1:1 DAR 16:9, 25 fps, 25 tbr, 25 tbn (default)
      Metadata:
        creation_time   : 2025-06-23T07:00:12.000000Z
        handler_name    : Apple Video Media Handler
        vendor_id       : appl
        encoder         : Apple ProRes 422
        timecode        : 00:00:03:04
  Stream #0:1[0x2](eng): Audio: pcm_s16le (sowt / 0x74776F73), 48000 Hz, stereo, s16, 1536 kb/s (default)
      Metadata:
        creation_time   : 2025-06-23T07:00:12.000000Z
        handler_name    : Apple Sound Media Handler
        vendor_id       :     
        timecode        : 00:00:03:04
  Stream #0:2[0x3](eng): Data: none (tmcd / 0x64636D74), 0 kb/s (default)
      Metadata:
        creation_time   : 2025-06-23T07:00:12.000000Z
        handler_name    : Time Code Media Handler
        timecode        : 00:00:03:04

[2025-06-23T07:05:22.778Z] ffgac stderr: Stream mapping:
  Stream #0:0 -> #0:0 (prores (native) -> mpeg4 (native))

[2025-06-23T07:05:22.778Z] ffgac stderr: Press [q] to stop, [?] for help

[2025-06-23T07:05:22.831Z] ffgac stderr: Output #0, rawvideo, to 'C:\Users\EVPez\Documents\mayaREAL!!!\scenes\multi-major-year12\inder\projec\mosh\Helpers\swapPrimedvs73o.mp4':
  Metadata:
    major_brand     : qt  
    minor_version   : 537199360
    compatible_brands: qt  
    encoder         : Lavf61.1.100
[2025-06-23T07:05:22.831Z] ffgac stderr: 
  Stream #0:0(eng): Video: mpeg4, yuv420p(tv, bt709, progressive), 1920x1080 [SAR 1:1 DAR 16:9], q=2-31, 200 kb/s, 25 fps, 25 tbn (default)
      Metadata:
        creation_time   : 2025-06-23T07:00:12.000000Z
        handler_name    : Apple Video Media Handler
        vendor_id       : appl
        timecode        : 00:00:03:04
        encoder         : Lavc61.3.100 mpeg4
      Side data:
        cpb: bitrate max/min/avg: 0/0/200000 buffer size: 0 vbv_delay: N/A

[2025-06-23T07:05:23.297Z] ffgac stderr: frame=   82 fps=0.0 q=0.0 size=    8448KiB time=00:00:03.28 bitrate=21099.4kbits/s speed=6.33x    
[2025-06-23T07:05:23.408Z] ffgac stderr: [out#0/rawvideo @ 00000164bcd25580] video:11427KiB audio:0KiB subtitle:0KiB other streams:0KiB global headers:0KiB muxing overhead: 0.000000%
frame=  113 fps=0.0 q=0.0 Lsize=   11427KiB time=00:00:04.52 bitrate=20709.8kbits/s speed=7.17x    

[2025-06-23T07:05:23.437Z] Priming swap file completed successfully
[2025-06-23T07:05:23.437Z] Primed swap file to C:\Users\EVPez\Documents\mayaREAL!!!\scenes\multi-major-year12\inder\projec\mosh\Helpers\swapPrimedvs73o.mp4
[2025-06-23T07:05:23.437Z] Exporting MVs for module vs73o
[2025-06-23T07:05:23.437Z] Starting Exporting MVs for vs73o with ffedit
[2025-06-23T07:05:23.831Z] ffedit stderr: Input #0, m4v, from 'C:\Users\EVPez\Documents\mayaREAL!!!\scenes\multi-major-year12\inder\projec\mosh\Helpers\swapPrimedvs73o.mp4':
  Duration: N/A, start: 0.000000, bitrate: N/A
  Stream #0:0: Video: mpeg4 (Simple Profile), yuv420p, 1920x1080 [SAR 1:1 DAR 16:9], 25 fps, 25 tbr, 1200k tbn

[2025-06-23T07:05:23.835Z] Exporting MVs for vs73o completed successfully
[2025-06-23T07:05:23.836Z] Finished exporting MVs for module vs73o
[2025-06-23T07:05:23.836Z] Priming main file
[2025-06-23T07:05:23.836Z] Starting Priming main file with ffgac
[2025-06-23T07:05:23.938Z] ffgac stderr: [mov,mp4,m4a,3gp,3g2,mj2 @ 000001fd99f38940] Referenced QT chapter track not found

[2025-06-23T07:05:23.954Z] ffgac stderr: Input #0, mov,mp4,m4a,3gp,3g2,mj2, from 'C:\Users\EVPez\Documents\mayaREAL!!!\scenes\multi-major-year12\inder\projec\mosh\Helpers\rendFile.mov':
  Metadata:
    major_brand     : qt  
    minor_version   : 537199360
    compatible_brands: qt  
    creation_time   : 2025-06-16T09:29:50.000000Z
  Duration: 00:00:17.16, start: 0.000000, bitrate: 114797 kb/s

[2025-06-23T07:05:23.954Z] ffgac stderr:   Stream #0:0[0x1](eng): Video: prores (Standard) (apcn / 0x6E637061), yuv422p10le(bt709, progressive), 1920x1080, 112772 kb/s, SAR 1:1 DAR 16:9, 25 fps, 25 tbr, 25 tbn (default)
      Metadata:
        creation_time   : 2025-06-16T09:29:50.000000Z
        handler_name    : Apple Video Media Handler
        vendor_id       : appl
        encoder         : Apple ProRes 422
        timecode        : 00:00:00:00
  Stream #0:1[0x2](eng): Audio: pcm_s16le (sowt / 0x74776F73), 48000 Hz, stereo, s16, 1536 kb/s (default)
      Metadata:
        creation_time   : 2025-06-16T09:29:50.000000Z
        handler_name    : Apple Sound Media Handler
        vendor_id       :     
        timecode        : 00:00:00:00
  Stream #0:2[0x3](eng): Data: none (tmcd / 0x64636D74), 0 kb/s (default)
      Metadata:
        creation_time   : 2025-06-16T09:29:50.000000Z
        handler_name    : Time Code Media Handler
        timecode        : 00:00:00:00

[2025-06-23T07:05:23.955Z] ffgac stderr: Stream mapping:
  Stream #0:0 -> #0:0 (prores (native) -> mpeg4 (native))

[2025-06-23T07:05:23.955Z] ffgac stderr: Press [q] to stop, [?] for help

[2025-06-23T07:05:24.006Z] ffgac stderr: Output #0, rawvideo, to 'C:\Users\EVPez\Documents\mayaREAL!!!\scenes\multi-major-year12\inder\projec\mosh\Helpers\primedFile.mp4':
  Metadata:
    major_brand     : qt  
    minor_version   : 537199360
    compatible_brands:
[2025-06-23T07:05:24.007Z] ffgac stderr:  qt  
    encoder         : Lavf61.1.100
  Stream #0:0(eng): Video: mpeg4, yuv420p(tv, bt709, progressive), 1920x1080 [SAR 1:1 DAR 16:9], q=2-31, 200 kb/s, 25 fps, 25 tbn (default)
      Metadata:
        creation_time   : 2025-06-16T09:29:50.000000Z
        handler_name    : Apple Video Media Handler
        vendor_id       : appl
        timecode        : 00:00:00:00
        encoder         : Lavc61.3.100 mpeg4
      Side data:
        cpb: bitrate max/min/avg: 0/0/200000 buffer size: 0 vbv_delay: N/A

[2025-06-23T07:05:24.469Z] ffgac stderr: frame=   88 fps=0.0 q=2.0 size=    5632KiB time=00:00:03.52 bitrate=13107.2kbits/s speed=6.86x    
[2025-06-23T07:05:24.976Z] ffgac stderr: frame=  187 fps=183 q=2.0 size=   15872KiB time=00:00:07.48 bitrate=17382.8kbits/s speed=7.32x    
[2025-06-23T07:05:25.498Z] ffgac stderr: frame=  295 fps=191 q=2.0 size=   25088KiB time=00:00:11.80 bitrate=17417.0kbits/s speed=7.65x    
[2025-06-23T07:05:26.006Z] ffgac stderr: frame=  388 fps=189 q=2.0 size=   32000KiB time=00:00:15.52 bitrate=16890.7kbits/s speed=7.57x    
[2025-06-23T07:05:26.199Z] ffgac stderr: [out#0/rawvideo @ 000001fd9b718ec0] video:35795KiB audio:0KiB subtitle:0KiB other streams:0KiB global headers:0KiB muxing overhead: 0.000000%
frame=  429 fps=191 q=2.0 Lsize=   35795KiB time=00:00:17.16 bitrate=17088.3kbits/s speed=7.65x    

[2025-06-23T07:05:26.227Z] Priming main file completed successfully
[2025-06-23T07:05:26.228Z] Primed main file to C:\Users\EVPez\Documents\mayaREAL!!!\scenes\multi-major-year12\inder\projec\mosh\Helpers\primedFile.mp4
[2025-06-23T07:05:26.228Z] Starting RF splitting 0 with ffmpeg
[2025-06-23T07:05:26.480Z] ffmpeg stderr: Input #0, m4v, from 'C:\Users\EVPez\Documents\mayaREAL!!!\scenes\multi-major-year12\inder\projec\mosh\Helpers\primedFile.mp4':
  Duration: N/A, start: 0.000000, bitrate: N/A

[2025-06-23T07:05:26.481Z] ffmpeg stderr:   Stream #0:0: Video: mpeg4 (Simple Profile), yuv420p, 1920x1080 [SAR 1:1 DAR 16:9], 25 fps, 25 tbr, 1200k tbn

[2025-06-23T07:05:26.481Z] ffmpeg stderr: Stream mapping:
  Stream #0:0 -> #0:0 (copy)

[2025-06-23T07:05:26.481Z] ffmpeg stderr: Output #0, mp4, to 'C:\Users\EVPez\Documents\mayaREAL!!!\scenes\multi-major-year12\inder\projec\mosh\Helpers\rfSplitFile0.mp4':
  Metadata:
    encoder         : Lavf61.1.100

[2025-06-23T07:05:26.481Z] ffmpeg stderr:   Stream #0:0: Video: mpeg4 (Simple Profile) (mp4v / 0x7634706D), yuv420p, 1920x1080 [SAR 1:1 DAR 16:9], q=2-31, 25 fps, 25 tbr, 1200k tbn

[2025-06-23T07:05:26.481Z] ffmpeg stderr: Press [q] to stop, [?] for help

[2025-06-23T07:05:26.489Z] ffmpeg stderr: [out#0/mp4 @ 0000010c4fdcfd40] video:5033KiB audio:0KiB subtitle:0KiB other streams:0KiB global headers:0KiB muxing overhead: 0.025128%
size=    5034KiB time=00:00:03.24 bitrate=12728.3kbits/s speed= 406x    

[2025-06-23T07:05:26.492Z] RF splitting 0 completed successfully
[2025-06-23T07:05:26.492Z] Finished RF splitting 0: startTime=0, duration=3.2
[2025-06-23T07:05:26.492Z] Starting RF splitting 1 with ffmpeg
[2025-06-23T07:05:26.738Z] ffmpeg stderr: Input #0, m4v, from 'C:\Users\EVPez\Documents\mayaREAL!!!\scenes\multi-major-year12\inder\projec\mosh\Helpers\primedFile.mp4':
  Duration: N/A, start: 0.000000, bitrate: N/A
  Stream #0:0: Video: mpeg4 (Simple Profile), yuv420p, 1920x1080 [SAR 1:1 DAR 16:9], 25 fps, 25 tbr, 1200k tbn

[2025-06-23T07:05:26.738Z] ffmpeg stderr: Stream mapping:
  Stream #0:0 -> #0:0 (copy)

[2025-06-23T07:05:26.738Z] ffmpeg stderr: Output #0, mp4, to 'C:\Users\EVPez\Documents\mayaREAL!!!\scenes\multi-major-year12\inder\projec\mosh\Helpers\rfSplitFile1.mp4':
  Metadata:
    encoder         : Lavf61.1.100
  Stream #0:0: Video: mpeg4 (Simple Profile) (mp4v / 0x7634706D), yuv420p, 1920x1080 [SAR 1:1 DAR 16:9], q=2-31, 25 fps, 25 tbr, 1200k tbn

[2025-06-23T07:05:26.738Z] ffmpeg stderr: Press [q] to stop, [?] for help

[2025-06-23T07:05:26.784Z] ffmpeg stderr: [out#0/mp4 @ 0000024ffda1fd40] video:30553KiB audio:0KiB subtitle:0KiB other streams:0KiB global headers:0KiB muxing overhead: 0.008627%
size=   30555KiB time=00:00:17.16 bitrate=14586.8kbits/s speed= 378x    

[2025-06-23T07:05:26.787Z] RF splitting 1 completed successfully
[2025-06-23T07:05:26.787Z] Finished RF splitting 1: startTime=3.2800000000000002, duration=13.879999999999999
[2025-06-23T07:05:26.789Z] Starting RF concatenating with ffmpeg
[2025-06-23T07:05:27.023Z] ffmpeg stderr: Input #0, concat, from 'C:\Users\EVPez\Documents\mayaREAL!!!\scenes\multi-major-year12\inder\projec\mosh\Helpers\rfSplitList.txt':
  Duration: N/A, start: 0.000000, bitrate: 12884 kb/s
  Stream #0:0(und): Video: mpeg4 (Simple Profile) (mp4v / 0x7634706D), yuv420p, 1920x1080 [SAR 1:1 DAR 16:9], 12884 kb/s, 25 fps, 25 tbr, 1200k tbn
      Metadata:
        handler_name    : VideoHandler
        vendor_id       : [0][0][0][0]

[2025-06-23T07:05:27.023Z] ffmpeg stderr: Stream mapping:
  Stream #0:0 -> #0:0 (copy)

[2025-06-23T07:05:27.023Z] ffmpeg stderr: Output #0, mp4, to 'C:\Users\EVPez\Documents\mayaREAL!!!\scenes\multi-major-year12\inder\projec\mosh\Helpers\rfConcatFile.mp4':
  Metadata:
    encoder         : Lavf61.1.100

[2025-06-23T07:05:27.023Z] ffmpeg stderr:   Stream #0:0(und): Video: mpeg4 (Simple Profile) (mp4v / 0x7634706D), yuv420p, 1920x1080 [SAR 1:1 DAR 16:9], q=2-31, 12884 kb/s, 25 fps, 25 tbr, 1200k tbn
      Metadata:
        handler_name    : VideoHandler
        vendor_id       : [0][0][0][0]

[2025-06-23T07:05:27.023Z] ffmpeg stderr: Press [q] to stop, [?] for help

[2025-06-23T07:05:27.048Z] ffmpeg stderr: [out#0/mp4 @ 000001d8fbf5bac0] video:35586KiB audio:0KiB subtitle:0KiB other streams:0KiB global headers:0KiB muxing overhead: 0.012346%
size=   35590KiB time=00:00:17.08 bitrate=17069.8kbits/s speed= 694x    

[2025-06-23T07:05:27.051Z] RF concatenating completed successfully
[2025-06-23T07:05:27.051Z] Finished RF concatenating
[2025-06-23T07:05:27.051Z] No hold frames detected, skipping HF processing
[2025-06-23T07:05:27.051Z] Generating Glitch Doc
[2025-06-23T07:05:27.051Z] Copying Glitch Doc from C:\Program Files (x86)\Common Files\Adobe\CEP\extensions\com.aescripts.datamosh2\bin\ffmpeg\glitchDocTemp.js to C:\Users\EVPez\Documents\mayaREAL!!!\scenes\multi-major-year12\inder\projec\mosh\Helpers\glitchDoc.js
[2025-06-23T07:05:27.051Z] Collecting MV data for 1 swap modules
[2025-06-23T07:05:27.371Z] Creating mosh instructions
[2025-06-23T07:05:27.371Z] Writing Glitch Doc
[2025-06-23T07:05:27.478Z] Finished writing Glitch Doc
[2025-06-23T07:05:27.478Z] Glitch Doc generated successfully
[2025-06-23T07:05:27.478Z] Moshing Temp
[2025-06-23T07:05:27.478Z] Starting Moshing temp with ffedit
[2025-06-23T07:05:29.890Z] ffedit stderr: Input #0, mov,mp4,m4a,3gp,3g2,mj2, from 'C:\Users\EVPez\Documents\mayaREAL!!!\scenes\multi-major-year12\inder\projec\mosh\Helpers\rfConcatFile.mp4':
  Metadata:
    major_brand     : isom
    minor_version   : 512
    compatible_brands: isomiso2mp41
    encoder         : Lavf61.1.100
  Duration: 00:00:17.08, start: 0.000000, bitrate: 17069 kb/s
  Stream #0:0[0x1](und): Video: mpeg4 (Simple Profile) (mp4v / 0x7634706D), yuv420p, 1920x1080 [SAR 1:1 DAR 16:9], 17067 kb/s, 25 fps, 25 tbr, 1200k tbn (default)
      Metadata:
        handler_name    : VideoHandler
        vendor_id       : [0][0][0][0]
frame=   79 fps=0.0 size=N/A time=00:00:03.12  speed= 5.7x    
[2025-06-23T07:05:30.422Z] ffedit stderr: frame=   88 fps= 82 size=N/A time=00:00:03.48  speed=3.23x    
[2025-06-23T07:05:30.938Z] ffedit stderr: frame=   90 fps= 56 size=N/A time=00:00:03.56  speed=2.23x    
[2025-06-23T07:05:31.512Z] ffedit stderr: frame=   93 fps= 43 size=N/A time=00:00:03.68  speed= 1.7x    
[2025-06-23T07:05:32.047Z] ffedit stderr: frame=   96 fps= 36 size=N/A time=00:00:03.80  speed=1.41x    
[2025-06-23T07:05:32.573Z] ffedit stderr: frame=   99 fps= 31 size=N/A time=00:00:03.92  speed=1.21x    
[2025-06-23T07:05:33.095Z] ffedit stderr: frame=  102 fps= 27 size=N/A time=00:00:04.04  speed=1.08x    
[2025-06-23T07:05:33.605Z] ffedit stderr: frame=  105 fps= 25 size=N/A time=00:00:04.16  speed=0.976x    
[2025-06-23T07:05:34.119Z] ffedit stderr: frame=  108 fps= 23 size=N/A time=00:00:04.28  speed=0.896x    
[2025-06-23T07:05:34.632Z] ffedit stderr: frame=  111 fps= 21 size=N/A time=00:00:04.40  speed=0.832x    
[2025-06-23T07:05:35.150Z] ffedit stderr: frame=  117 fps= 20 size=N/A time=00:00:04.64  speed=0.799x    
[2025-06-23T07:05:35.661Z] ffedit stderr: frame=  129 fps= 20 size=N/A time=00:00:05.12  speed=0.81x    
[2025-06-23T07:05:36.168Z] ffedit stderr: frame=  141 fps= 21 size=N/A time=00:00:05.60  speed=0.821x    
[2025-06-23T07:05:36.677Z] ffedit stderr: frame=  153 fps= 21 size=N/A time=00:00:06.08  speed=0.829x    
[2025-06-23T07:05:37.193Z] ffedit stderr: frame=  165 fps= 21 size=N/A time=00:00:06.56  speed=0.836x    
[2025-06-23T07:05:37.702Z] ffedit stderr: frame=  177 fps= 21 size=N/A time=00:00:07.04  speed=0.842x    
[2025-06-23T07:05:38.223Z] ffedit stderr: frame=  190 fps= 21 size=N/A time=00:00:07.56  speed=0.851x    
[2025-06-23T07:05:38.746Z] ffedit stderr: frame=  203 fps= 22 size=N/A time=00:00:08.08  speed=0.859x    
[2025-06-23T07:05:39.287Z] ffedit stderr: frame=  216 fps= 22 size=N/A time=00:00:08.60  speed=0.865x    
[2025-06-23T07:05:39.818Z] ffedit stderr: frame=  229 fps= 22 size=N/A time=00:00:09.12  speed=0.871x    
[2025-06-23T07:05:40.351Z] ffedit stderr: frame=  242 fps= 22 size=N/A time=00:00:09.64  speed=0.876x    
[2025-06-23T07:05:40.878Z] ffedit stderr: frame=  255 fps= 22 size=N/A time=00:00:10.16  speed=0.881x    
[2025-06-23T07:05:41.409Z] ffedit stderr: frame=  268 fps= 22 size=N/A time=00:00:10.68  speed=0.885x    
[2025-06-23T07:05:41.909Z] ffedit stderr: frame=  349 fps= 28 size=N/A time=00:00:13.92  speed=1.11x    
[2025-06-23T07:05:42.067Z] ffedit stderr: frame=  427 fps= 34 Lsize=N/A time=00:00:17.04  speed=1.34x    

[2025-06-23T07:05:42.383Z] Moshing temp completed successfully
[2025-06-23T07:05:42.383Z] Moshed Temp
[2025-06-23T07:05:42.383Z] Starting Baking mosh with ffmpeg
[2025-06-23T07:05:49.725Z] Baking mosh completed successfully
[2025-06-23T07:05:50.001Z] Moshing complete